<svg width="30" height="30" viewBox="0 0 30 30" fill="none" xmlns="http://www.w3.org/2000/svg">
<path d="M28.344 5.30167e-08H1.65459C0.740662 0.000457817 -0.000228829 0.741806 5.30167e-08 1.65596V28.3454C0.000457817 29.2593 0.741806 30.0002 1.65596 30H28.344C29.2584 30.0002 29.9998 29.2591 30 28.3447C30 28.3445 30 28.3443 30 28.344V1.65459C29.9995 0.740662 29.2582 -0.000228829 28.344 5.30167e-08V5.30167e-08Z" fill="#4267B2"/>
<path d="M20.7129 27.4693V15.8677H24.624L25.21 11.3267H20.7129V8.43456C20.7129 7.12283 21.077 6.22905 22.958 6.22905H25.3418V2.17853C24.9271 2.12337 23.5041 2 21.8484 2C18.3913 2 16.0254 4.10938 16.0254 7.9848V11.3267H12.1289V15.8677H16.0254V27.4693H20.7129Z" fill="white"/>
</svg>
