<svg width="30" height="30" viewBox="0 0 30 30" fill="none" xmlns="http://www.w3.org/2000/svg">
<path d="M27.9879 7.52003C26.6465 5.20662 24.8271 3.37509 22.529 2.02503C20.2307 0.674894 17.7215 0 14.9999 0C12.2785 0 9.76858 0.675101 7.47069 2.02503C5.17246 3.37502 3.35308 5.20662 2.01174 7.52003C0.670602 9.83337 0 12.3596 0 15.0985C0 18.3886 0.953606 21.3472 2.8613 23.975C4.76878 26.6029 7.23297 28.4214 10.2537 29.4305C10.6053 29.4962 10.8656 29.45 11.0348 29.2931C11.2041 29.1359 11.2887 28.9391 11.2887 28.7035C11.2887 28.6642 11.2853 28.3104 11.2788 27.6419C11.2721 26.9733 11.269 26.3901 11.269 25.8924L10.8197 25.9706C10.5333 26.0235 10.172 26.0458 9.73574 26.0395C9.29971 26.0334 8.84705 25.9874 8.37839 25.9019C7.90952 25.8171 7.47342 25.6205 7.06975 25.3125C6.66628 25.0045 6.37986 24.6013 6.21055 24.1036L6.01524 23.6512C5.88506 23.35 5.68011 23.0154 5.40012 22.6486C5.12012 22.2816 4.83698 22.0327 4.55056 21.9017L4.41381 21.8031C4.32269 21.7376 4.23814 21.6587 4.15995 21.567C4.08183 21.4753 4.02334 21.3836 3.98428 21.2918C3.94515 21.1998 3.97758 21.1244 4.0819 21.0653C4.18622 21.0061 4.37475 20.9774 4.64832 20.9774L5.03879 21.0362C5.29922 21.0887 5.62135 21.2456 6.0056 21.5079C6.38964 21.77 6.70534 22.1107 6.95277 22.5299C7.2524 23.0675 7.61339 23.477 8.03676 23.7589C8.4598 24.0407 8.88632 24.1814 9.31592 24.1814C9.74552 24.1814 10.1166 24.1486 10.4292 24.0834C10.7415 24.0179 11.0345 23.9193 11.308 23.7883C11.4252 22.9098 11.7443 22.2349 12.2649 21.7632C11.5228 21.6847 10.8556 21.5664 10.263 21.4092C9.67075 21.2518 9.05871 20.9964 8.4273 20.6421C7.79556 20.2884 7.27148 19.8492 6.85495 19.3251C6.43834 18.8008 6.09644 18.1125 5.82972 17.2608C5.56286 16.4087 5.4294 15.4258 5.4294 14.3118C5.4294 12.7256 5.94382 11.3758 6.97247 10.2617C6.49061 9.06917 6.5361 7.73233 7.10908 6.25129C7.48669 6.1332 8.04668 6.22182 8.78877 6.51661C9.531 6.81153 10.0744 7.06418 10.4196 7.27365C10.7648 7.48305 11.0414 7.66051 11.2497 7.80442C12.4609 7.46377 13.7108 7.29341 14.9997 7.29341C16.2887 7.29341 17.5388 7.46377 18.7501 7.80442L19.4922 7.3328C19.9997 7.01811 20.599 6.72973 21.2887 6.46758C21.9788 6.20557 22.5065 6.1334 22.8713 6.2515C23.457 7.7326 23.5092 9.06938 23.0272 10.2619C24.0558 11.376 24.5704 12.7262 24.5704 14.312C24.5704 15.426 24.4365 16.412 24.17 17.2706C23.9032 18.1294 23.5584 18.817 23.1353 19.335C22.7118 19.8529 22.1844 20.2887 21.553 20.6424C20.9215 20.9963 20.3092 21.2518 19.7169 21.4092C19.1244 21.5666 18.4572 21.6849 17.7151 21.7635C18.3919 22.3531 18.7304 23.2837 18.7304 24.555V28.7029C18.7304 28.9386 18.8118 29.1353 18.9748 29.2925C19.1375 29.4494 19.3945 29.4956 19.7461 29.4299C22.7672 28.4209 25.2314 26.6024 27.1388 23.9744C29.0461 21.3467 30 18.3881 30 15.098C29.9993 12.3594 29.3284 9.83337 27.9879 7.52003Z" fill="#EFECEC"/>
</svg>
