<svg width="35" height="35" viewBox="0 0 35 35" fill="none" xmlns="http://www.w3.org/2000/svg">
<path fill-rule="evenodd" clip-rule="evenodd" d="M0 17.5C0 7.85011 7.85011 0 17.5 0C27.1499 0 35 7.85011 35 17.5C35 27.1499 27.1499 35 17.5 35C7.85011 35 0 27.1499 0 17.5ZM18.9582 18.9582H25.1562C25.9613 18.9582 26.6145 18.3051 26.6145 17.5C26.6145 16.6949 25.9613 16.0418 25.1562 16.0418H18.9582V9.84375C18.9582 9.03866 18.3051 8.38551 17.5 8.38551C16.6949 8.38551 16.0418 9.03866 16.0418 9.84375V16.0418H9.84375C9.03866 16.0418 8.38551 16.6949 8.38551 17.5C8.38551 18.3051 9.03866 18.9582 9.84375 18.9582H16.0418V25.1562C16.0418 25.9613 16.6949 26.6145 17.5 26.6145C18.3051 26.6145 18.9582 25.9613 18.9582 25.1562V18.9582Z" fill="#EFECEC"/>
</svg>
