<svg width="30" height="42" viewBox="0 0 30 42" fill="none" xmlns="http://www.w3.org/2000/svg">
<path d="M28.6537 4.14194H21.278V1.34651C21.278 0.602927 20.6751 0 19.9314 0H10.0687C9.32513 0 8.72221 0.602847 8.72221 1.34651V4.14194H1.34651C0.602927 4.14194 0 4.74479 0 5.48845V9.63031C0 10.3739 0.602847 10.9768 1.34651 10.9768H28.6535C29.3971 10.9768 30 10.374 30 9.63031V5.48845C30.0001 4.74471 29.3972 4.14194 28.6537 4.14194ZM18.5849 4.14194H11.4152V2.69293H18.5849V4.14194Z" fill="#EFECEC"/>
<path d="M1.86983 13.6697L2.98633 40.0027C3.01682 40.7234 3.61015 41.2921 4.33155 41.2921H25.6685C26.3899 41.2921 26.9833 40.7234 27.0137 40.0026L28.1302 13.6697H1.86983ZM10.9297 35.8164C10.9297 36.5599 10.3269 37.1629 9.58321 37.1629C8.83963 37.1629 8.2367 36.56 8.2367 35.8164V19.1452C8.2367 18.4016 8.83955 17.7987 9.58321 17.7987C10.3268 17.7987 10.9297 18.4016 10.9297 19.1452V35.8164ZM16.3463 35.8164C16.3463 36.5599 15.7435 37.1629 14.9998 37.1629C14.2561 37.1629 13.6533 36.56 13.6533 35.8164V19.1452C13.6533 18.4016 14.2561 17.7987 14.9998 17.7987C15.7435 17.7987 16.3463 18.4016 16.3463 19.1452V35.8164ZM21.7629 35.8164C21.7629 36.5599 21.16 37.1629 20.4164 37.1629C19.6727 37.1629 19.0699 36.56 19.0699 35.8164V19.1452C19.0699 18.4016 19.6727 17.7987 20.4164 17.7987C21.16 17.7987 21.7629 18.4016 21.7629 19.1452V35.8164Z" fill="#EFECEC"/>
</svg>
