<svg width="40" height="40" viewBox="0 0 40 40" fill="none" xmlns="http://www.w3.org/2000/svg">
<g clip-path="url(#clip0)">
<path d="M39.5904 20.4391C39.5904 31.2423 30.8328 39.9999 20.0296 39.9999C9.22642 39.9999 0.468811 31.2423 0.468811 20.4391C0.468811 9.63591 9.22642 0.878296 20.0296 0.878296C30.8328 0.878296 39.5904 9.63591 39.5904 20.4391Z" fill="#2A174E"/>
<path d="M15.5585 5.18982V6.24603C15.5585 6.90735 15.0223 7.44354 14.361 7.44354C13.6997 7.44354 13.1635 6.90735 13.1635 6.24603V5.18982C13.1635 4.5282 13.6997 3.992 14.361 3.992C15.0223 3.992 15.5585 4.5282 15.5585 5.18982ZM9.08849 6.48254C8.66338 5.97595 7.90807 5.90973 7.40118 6.33514C6.89459 6.76025 6.82867 7.51556 7.25378 8.02216L8.05486 8.97705C8.47997 9.48395 9.23559 9.54987 9.74218 9.12476C10.2488 8.69965 10.315 7.94434 9.88989 7.43774L9.08849 6.48254ZM6.31323 11.9943L4.7492 11.7184C4.09796 11.6037 3.47662 12.0386 3.36187 12.6898C3.24712 13.3414 3.682 13.9624 4.33325 14.0771L5.89697 14.353C6.54852 14.4678 7.16955 14.0329 7.2846 13.3817C7.39935 12.7301 6.96447 12.1091 6.31323 11.9943Z" fill="#4E2C91"/>
<path d="M31.258 4.63107L30.4416 12.9267C30.4239 13.1293 30.3659 13.3188 30.2768 13.4879C30.2631 13.5498 30.2466 13.6115 30.2243 13.6725L26.6947 22.4689V31.1377H16.3153V27.3334C16.3153 25.3626 14.9915 23.6371 13.0875 23.1269C10.6244 22.4671 8.91147 20.2347 8.91147 17.6847V15.9925C8.91147 15.3784 9.40921 14.8804 10.0235 14.8804C11.4566 14.8804 12.6184 16.0422 12.6184 17.4753V17.6313C12.6184 18.5352 13.2254 19.3262 14.0982 19.56C15.3665 19.8999 16.612 18.9444 16.612 17.6313V15.3253C16.612 14.451 16.1652 13.6377 15.4276 13.1687C14.6537 12.6764 13.6499 12.7426 12.9471 13.3322L12.713 13.5285C11.6153 14.4498 9.97867 14.3064 9.05735 13.2086C8.66275 12.7381 8.72409 12.0368 9.19467 11.6419L10.6946 10.3833C12.5373 8.837 15.1657 8.65298 17.2062 9.92679L18.8858 10.9757C18.9502 11.016 19.0244 11.037 19.1001 11.037H19.1004C19.3232 11.037 19.5041 10.857 19.5047 10.6342V10.6177C19.506 10.1331 19.4431 9.6506 19.3177 9.18246L17.6255 3.21628C17.2544 1.832 18.0759 0.408964 19.4602 0.0381755C20.0534 -0.120821 20.6632 0.231352 20.8222 0.824614L22.7167 7.5806C22.7411 7.66757 22.8699 7.64407 22.862 7.55435L22.5431 3.88339C22.4182 2.45578 23.4745 1.19723 24.9021 1.07242C25.5136 1.01901 26.0532 1.47128 26.1066 2.08316L26.8198 10.2619C26.8274 10.3513 26.9577 10.3525 26.9672 10.2631L27.4363 5.78494C27.5611 4.35733 28.8199 3.30142 30.2475 3.42624C30.8588 3.47995 31.3117 4.01919 31.258 4.63107Z" fill="#FFDFCF"/>
<path d="M30.6708 3.55104C29.7223 3.86995 29.2523 4.51997 28.6685 5.71535L27.3248 11.5427C27.3154 11.6321 26.8481 11.5643 26.8405 11.4749L27.4103 5.80904C27.4506 5.43306 27.5583 5.06502 27.746 4.73665C28.3334 3.70882 29.4101 3.35298 30.2469 3.42622C30.4001 3.43965 30.5429 3.48329 30.6708 3.55104ZM16.6119 15.3253V17.6315C16.6119 18.4903 16.0791 19.1959 15.3555 19.4864C15.4263 19.5145 15.4987 19.5401 15.5734 19.5603C16.8417 19.8999 18.0872 18.9444 18.0872 17.6315V15.3253C18.0872 14.4513 17.6404 13.6377 16.9028 13.1687C16.3342 12.807 15.6421 12.7478 15.036 12.9752C15.1709 13.0258 15.3024 13.089 15.4276 13.1687C16.1652 13.6377 16.6119 14.4513 16.6119 15.3253ZM24.9017 1.0724C24.8621 1.07576 24.6268 1.11665 24.5877 1.12184C23.4253 1.27657 22.5153 2.40236 22.5342 3.57484L23.136 10.9616C23.1604 11.0483 23.5663 11.0379 23.5587 10.9482L23.8495 3.89772C24.1 2.6526 24.5941 1.67635 25.6171 1.25642C25.4135 1.12032 25.1645 1.04951 24.9017 1.0724ZM14.9713 21.9409C12.5079 21.2808 10.5945 19.0485 10.5945 16.4984C10.5945 16.4984 10.2921 14.8807 10.0235 14.8807C9.40918 14.8807 8.91144 15.3784 8.91144 15.9928V17.6846C8.91144 20.2347 10.6244 22.4671 13.0875 23.1272C14.9915 23.6371 16.3153 25.3626 16.3153 27.3337V31.1377H18.1992V26.1475C18.1992 24.1763 16.8753 22.4509 14.9713 21.9409ZM19.8022 0.00917065C19.6893 0.00367745 19.5734 0.0146638 19.458 0.0454865C18.074 0.41658 17.2525 1.83931 17.6233 3.22359L18.8968 10.9827L19.4107 11.2711C19.4751 11.3111 19.5493 11.3324 19.6249 11.3324H19.6252C19.848 11.3324 20.029 11.1521 20.0296 10.9293V10.9128C20.0308 10.4285 19.5068 2.03737 19.5068 2.03737C19.3152 1.32112 19.4431 0.595108 19.8022 0.00917065ZM9.55017 13.6606C9.79401 13.2068 10.5942 12.309 10.6809 12.2363C10.6809 12.2363 13.9835 9.27034 15.0034 9.13393C13.4888 8.93129 11.9183 9.3564 10.6946 10.3833L9.19434 11.6422C8.72406 12.0368 8.66242 12.7384 9.05732 13.2089C9.20471 13.3844 9.37134 13.5343 9.55017 13.6606Z" fill="#FFC9C0"/>
<path d="M29.0271 28.3434V32.3354C29.0271 32.886 28.6548 33.3486 28.1488 33.4887V38.24C25.6757 39.3697 22.9263 39.9999 20.0296 39.9999C18.0783 39.9999 16.1945 39.7143 14.4162 39.1827V33.4887C13.9102 33.3486 13.5379 32.886 13.5379 32.3354V28.3434C13.5379 27.6821 14.0741 27.1459 14.7357 27.1459H27.8293C28.4909 27.1456 29.0271 27.6818 29.0271 28.3434Z" fill="#FF393A"/>
<path d="M18.353 35.9283H28.1488V38.2406C25.6757 39.3707 22.9263 39.9999 20.0296 39.9999C19.053 39.9999 18.0936 39.9285 17.1555 39.7903V37.1258C17.1555 36.4645 17.6917 35.9283 18.353 35.9283ZM27.8293 27.1456H17.4503C16.7889 27.1456 16.2524 27.6818 16.2524 28.3434V32.3354C16.2524 32.9968 16.7889 33.533 17.4503 33.533H27.8293C28.4909 33.533 29.0271 32.9968 29.0271 32.3354V28.3434C29.0271 27.6818 28.4909 27.1456 27.8293 27.1456Z" fill="#FF6466"/>
<path d="M31.2579 4.63107L31.1472 5.75656C30.9909 5.91922 30.7636 6.00955 30.5222 5.97995L29.7864 5.88992C29.3799 5.84018 29.0909 5.4703 29.1406 5.06412L29.2307 4.32803C29.274 3.97555 29.4376 3.66763 29.6753 3.43966C29.8611 3.41495 30.0525 3.40915 30.2469 3.42624C30.8588 3.47995 31.3116 4.01919 31.2579 4.63107ZM10.0873 14.8822C10.0659 14.8816 10.0449 14.8804 10.0235 14.8804C9.40918 14.8804 8.91144 15.3784 8.91144 15.9925V17.4918C8.99964 17.529 9.09638 17.5495 9.19831 17.5495H9.93958C10.3491 17.5495 10.6812 17.2174 10.6812 16.8082V16.0666C10.6809 15.582 10.4471 15.1526 10.0873 14.8822ZM24.9017 1.07242C24.8056 1.08066 24.7113 1.09469 24.6185 1.11331C24.1824 1.41726 23.9243 1.94613 23.9935 2.51071L24.0839 3.24649C24.1339 3.65298 24.5038 3.94198 24.9103 3.89194L25.6461 3.8016C25.9036 3.76987 26.1139 3.60965 26.2207 3.39297L26.1063 2.08316C26.0529 1.47128 25.5136 1.01901 24.9017 1.07242ZM10.6375 11.1737C10.4697 11.0001 10.2374 10.9268 10.015 10.9537L9.19434 11.6422C8.72406 12.0368 8.66242 12.7384 9.05732 13.2086C9.21418 13.3954 9.39209 13.5541 9.58405 13.685C9.95056 13.6817 10.3165 13.545 10.6009 13.2703L11.134 12.7555C11.4285 12.4707 11.4368 12.0017 11.1523 11.7069L10.6375 11.1737ZM19.4598 0.0381755C19.4418 0.0430584 19.4244 0.0488567 19.4064 0.0540447C19.1837 0.400724 19.1046 0.837126 19.227 1.26437L19.4315 1.97696C19.5444 2.37063 19.9548 2.59799 20.3485 2.48507L21.0611 2.28061C21.1151 2.26535 21.1655 2.24368 21.2128 2.21805L20.8221 0.824614C20.6628 0.231352 20.0531 -0.120821 19.4598 0.0381755Z" fill="#FFEEE6"/>
</g>
<defs>
<clipPath id="clip0">
<path d="M0 0H40V40H0V0Z" fill="white"/>
</clipPath>
</defs>
</svg>
